<svg width="100" height="85" viewBox="0 0 100 85" fill="none" xmlns="http://www.w3.org/2000/svg">
    <path d="M60.0799 83.76C81.7074 83.76 99.2399 66.2275 99.2399 44.6C99.2399 22.9725 81.7074 5.44 60.0799 5.44C38.4525 5.44 20.9199 22.9725 20.9199 44.6C20.9199 66.2275 38.4525 83.76 60.0799 83.76Z" fill="#E8EDFA"/>
    <path d="M33.4766 85.2291L25.1717 80.5093C24.6517 80.2591 24.2195 79.8575 23.9319 79.3572C23.6443 78.8569 23.5148 78.2813 23.5603 77.706C23.6175 73.9874 23.5603 70.2784 23.5603 66.5693C23.5795 66.2383 23.5292 65.9069 23.4126 65.5966C23.296 65.2862 23.1157 65.0037 22.8833 64.7672L1.74447 42.5891C1.48427 42.346 1.27904 42.0501 1.14255 41.7212C1.00606 41.3923 0.941455 41.038 0.953076 40.6821C1.00075 38.2412 0.953076 35.8288 0.953076 33.407C0.901268 33.0191 0.939567 32.6245 1.065 32.2539C1.19043 31.8832 1.39962 31.5464 1.67632 31.2697C1.95301 30.9931 2.28977 30.7839 2.66043 30.6584C3.03109 30.533 3.42568 30.4947 3.81354 30.5465H11.7752C12.7287 30.5465 13.2912 30.9851 13.3008 31.7288C13.3103 32.4726 12.7287 32.9684 11.7275 32.9779H3.46075V39.9479H56.2554V33.0351H18.3161C17.9647 33.0532 17.6124 33.0276 17.2673 32.9588C16.9987 32.8867 16.7638 32.723 16.6033 32.4959C16.4427 32.2689 16.3666 31.9928 16.3881 31.7156C16.4096 31.4384 16.5274 31.1774 16.721 30.9778C16.9146 30.7782 17.172 30.6526 17.4484 30.6228C17.7469 30.6036 18.0463 30.6036 18.3447 30.6228H32.9617C32.9216 30.4388 32.8707 30.2573 32.8091 30.0793C32.6283 29.6697 32.5462 29.2233 32.5694 28.7762C32.5926 28.3291 32.7204 27.8936 32.9426 27.5049L35.7268 22.3656C35.901 22.0168 36.1446 21.7073 36.4427 21.4561C36.7408 21.205 37.0871 21.0173 37.4603 20.9048C37.8336 20.7923 38.2259 20.7573 38.6131 20.8019C39.0004 20.8465 39.3745 20.9698 39.7124 21.1642C40.4587 21.5479 41.1963 21.9484 41.9245 22.3656C42.0985 22.4928 42.3134 22.5514 42.5279 22.5303C42.7425 22.5092 42.9418 22.4099 43.0877 22.2512C44.8799 20.6299 46.977 19.382 49.2568 18.5802C49.4618 18.5265 49.6405 18.4003 49.7597 18.225C49.8788 18.0497 49.9305 17.8372 49.9052 17.6267V15.1953C49.895 14.8101 49.9611 14.4267 50.0995 14.067C50.2379 13.7074 50.4459 13.3786 50.7117 13.0996C50.9774 12.8205 51.2957 12.5967 51.6481 12.4409C52.0006 12.2851 52.3804 12.2005 52.7656 12.1919C54.768 12.1474 56.7735 12.1474 58.7822 12.1919C59.5278 12.1916 60.244 12.4825 60.7783 13.0025C61.3126 13.5226 61.6227 14.2307 61.6426 14.976C61.6903 15.8399 61.6903 16.7057 61.6426 17.5695C61.6086 17.81 61.6675 18.0544 61.8075 18.2528C61.9475 18.4513 62.1579 18.5888 62.3959 18.6374C64.621 19.433 66.6684 20.6575 68.4219 22.2416C68.5764 22.408 68.7851 22.5138 69.0105 22.54C69.236 22.5662 69.4634 22.5111 69.6519 22.3846C70.3766 21.9556 71.1108 21.5551 71.864 21.1833C72.1978 20.9971 72.5654 20.8797 72.9453 20.838C73.3252 20.7963 73.7096 20.8311 74.0757 20.9404C74.4419 21.0498 74.7825 21.2314 75.0774 21.4745C75.3722 21.7176 75.6153 22.0174 75.7924 22.356L78.6528 27.5621C78.8391 27.8986 78.9557 28.2691 78.9955 28.6517C79.0353 29.0342 78.9975 29.4208 78.8845 29.7885C78.7715 30.1561 78.5854 30.4971 78.3376 30.7912C78.0897 31.0853 77.7851 31.3263 77.4419 31.5C76.7173 31.9195 75.9831 32.32 75.2298 32.7014C75.0489 32.7795 74.8991 32.9156 74.8042 33.0882C74.7092 33.2609 74.6744 33.4603 74.7054 33.6549C74.7563 35.5619 74.7563 37.4688 74.7054 39.3758C74.6737 39.5693 74.7071 39.7678 74.8003 39.9404C74.8934 40.1129 75.0411 40.2497 75.2203 40.3293C75.9449 40.6916 76.6505 41.0826 77.3561 41.483C77.7184 41.6584 78.0406 41.9066 78.3026 42.2121C78.5647 42.5177 78.7609 42.8739 78.879 43.2587C78.9971 43.6435 79.0346 44.0485 78.9891 44.4484C78.9436 44.8483 78.8162 45.2346 78.6147 45.583C77.7218 47.2828 76.8064 48.9706 75.8687 50.646C75.6864 51.0043 75.4324 51.3213 75.1226 51.5775C74.8128 51.8336 74.4537 52.0234 74.0676 52.1352C73.6814 52.2469 73.2765 52.2782 72.8777 52.227C72.479 52.1759 72.095 52.0435 71.7496 51.8379C71.0535 51.4851 70.3575 51.1228 69.6805 50.7128C69.4953 50.5828 69.2698 50.5229 69.0445 50.5439C68.8191 50.5648 68.6086 50.6653 68.4505 50.8272C66.6456 52.4331 64.5566 53.6878 62.291 54.5267C62.1313 54.6197 61.9951 54.7479 61.8926 54.9016C61.7901 55.0553 61.7242 55.2304 61.6998 55.4135C61.614 56.2144 61.6998 57.0344 61.6998 57.8449C61.7198 58.2468 61.6562 58.6485 61.513 59.0246C61.3698 59.4007 61.1501 59.7429 60.8678 60.0297C60.5855 60.3165 60.2467 60.5416 59.8729 60.6907C59.4992 60.8398 59.0985 60.9097 58.6963 60.896C56.7894 60.896 54.8824 60.9533 52.9277 60.896C52.5186 60.9065 52.1118 60.8311 51.7336 60.6746C51.3554 60.5182 51.0142 60.2841 50.7321 59.9876C50.4499 59.6911 50.2331 59.3387 50.0956 58.9532C49.9581 58.5677 49.903 58.1577 49.9338 57.7495V55.4707C49.9548 55.246 49.8955 55.0211 49.7663 54.836C49.6371 54.6509 49.4464 54.5177 49.2282 54.46C47.3212 53.7163 47.3784 53.7067 45.9768 55.1846L37.0045 64.586C36.707 64.8653 36.4743 65.2064 36.3227 65.5853C36.1712 65.9642 36.1044 66.3716 36.1273 66.7791V71.2414C36.1273 72.1949 35.7077 72.6812 34.9545 72.7002C34.2012 72.7193 33.7054 72.2044 33.6959 71.2414V66.1212C33.7088 65.5534 33.8343 64.994 34.0651 64.4751C34.2959 63.9563 34.6273 63.4884 35.0403 63.0986C41.3651 56.4814 47.6772 49.8515 53.9766 43.2088C54.1673 43.0181 54.3484 42.8179 54.6154 42.5319H5.14843C5.32959 42.7416 5.46308 42.9228 5.62517 43.0849C11.9818 49.7784 18.3383 56.4687 24.6949 63.1558C25.1213 63.5713 25.4573 64.0703 25.6821 64.6215C25.9068 65.1727 26.0155 65.7644 26.0012 66.3595V77.0767C25.9628 77.4138 26.0351 77.7542 26.2071 78.0466C26.3791 78.3389 26.6415 78.5675 26.9547 78.6977C29.1668 79.8895 31.3408 81.1481 33.7054 82.5116V81.0814V77.7442C33.7054 76.6286 34.144 75.9993 34.9449 76.0088C35.7459 76.0184 36.1368 76.5809 36.1368 77.706V82.5784C36.2137 83.1294 36.1045 83.6904 35.8264 84.1723C35.5483 84.6542 35.1173 85.0295 34.6017 85.2386L33.4766 85.2291ZM49.1519 51.857L50.1054 52.2384C50.8082 52.4234 51.4215 52.854 51.8343 53.4522C52.247 54.0504 52.432 54.7766 52.3556 55.4993V57.6065C52.3556 58.3026 52.6226 58.56 53.3091 58.56H58.4198C59.0396 58.56 59.3161 58.3216 59.297 57.6923V55.1656C59.2845 54.5486 59.4717 53.9442 59.8309 53.4424C60.19 52.9406 60.7018 52.5684 61.2898 52.3814C63.4299 51.6056 65.4035 50.4311 67.1061 48.9202C67.5543 48.4793 68.1353 48.1984 68.7592 48.1208C69.3831 48.0433 70.0152 48.1734 70.5577 48.4912L72.7698 49.683C72.848 49.749 72.9411 49.795 73.041 49.8169C73.1409 49.8388 73.2447 49.836 73.3433 49.8088C73.4419 49.7815 73.5324 49.7307 73.6069 49.6606C73.6815 49.5905 73.7378 49.5033 73.771 49.4065L76.3645 44.6391C76.4204 44.5609 76.4576 44.471 76.4734 44.3762C76.4892 44.2814 76.483 44.1842 76.4554 44.0921C76.4278 44.0001 76.3794 43.9156 76.3141 43.8451C76.2487 43.7746 76.1681 43.7201 76.0784 43.6856L73.8663 42.4842C73.3004 42.1876 72.8399 41.7233 72.5481 41.1549C72.2562 40.5866 72.1471 39.9418 72.2359 39.3091C72.3312 37.5051 72.3312 35.6973 72.2359 33.8933C72.1453 33.246 72.2604 32.5866 72.5649 32.0083C72.8695 31.4299 73.3481 30.962 73.9331 30.6705L76.0689 29.5167C76.1665 29.4849 76.2551 29.43 76.327 29.3567C76.3989 29.2834 76.4521 29.1938 76.482 29.0956C76.512 28.9973 76.5178 28.8933 76.499 28.7924C76.4802 28.6914 76.4373 28.5965 76.374 28.5156C75.4968 26.9328 74.6323 25.3436 73.7805 23.7481C73.7455 23.6589 73.6909 23.5786 73.6207 23.5133C73.5505 23.448 73.4665 23.3994 73.3749 23.371C73.2833 23.3426 73.1865 23.3352 73.0917 23.3493C72.9968 23.3634 72.9064 23.3987 72.827 23.4526L70.758 24.5681C70.1773 24.9645 69.4744 25.141 68.7754 25.0658C68.0764 24.9907 67.4271 24.6689 66.944 24.1581C65.3196 22.7173 63.4365 21.5978 61.3947 20.8591C60.7389 20.664 60.1687 20.2523 59.7772 19.6911C59.3858 19.1299 59.1963 18.4526 59.2398 17.7698V15.4146C59.2398 14.8712 59.011 14.6233 58.458 14.6233H53.0898C52.5368 14.6233 52.3175 14.8902 52.327 15.4337V17.7888C52.379 18.4581 52.2002 19.125 51.8202 19.6785C51.4403 20.2319 50.8822 20.6385 50.2389 20.8305C48.1375 21.592 46.1971 22.7401 44.518 24.2153C44.0422 24.689 43.4189 24.986 42.7513 25.057C42.0837 25.1281 41.4119 24.9691 40.847 24.6063L38.778 23.4812C38.3584 23.2523 38.0056 23.2237 37.7482 23.7005L35.0975 28.63C35.0021 28.8112 35.0975 29.2688 35.1928 29.3356C36.2035 29.86 37.0998 30.6991 38.3394 30.68H45.7289C45.9655 30.7019 46.2036 30.6583 46.4172 30.5541C46.6307 30.4498 46.8115 30.2889 46.9398 30.0888C47.8773 28.7674 49.1081 27.6812 50.5357 26.9152C51.9634 26.1493 53.5491 25.7245 55.1684 25.6742C56.597 25.5798 58.0302 25.7683 59.3857 26.2288C60.7413 26.6894 61.9927 27.413 63.068 28.3582C64.1434 29.3033 65.0216 30.4514 65.6524 31.7367C66.2832 33.0219 66.654 34.419 66.7438 35.8479C66.8979 37.7193 66.5317 39.597 65.6854 41.2733C65.6325 41.4359 65.5457 41.5855 65.4308 41.7122C65.3158 41.8388 65.1754 41.9397 65.0186 42.0082C64.8619 42.0767 64.6924 42.1111 64.5214 42.1094C64.3503 42.1076 64.1816 42.0696 64.0263 41.9979C63.8716 41.9265 63.7335 41.8237 63.6206 41.6961C63.5077 41.5685 63.4226 41.4188 63.3706 41.2565C63.3186 41.0943 63.3009 40.923 63.3186 40.7535C63.3362 40.5841 63.3889 40.4201 63.4733 40.2721C63.4733 40.1481 63.5877 40.0242 63.6354 39.9002C64.3114 38.4071 64.5256 36.7459 64.2503 35.1301C63.9751 33.5143 63.223 32.0177 62.0908 30.8326C61.0346 29.597 59.6344 28.704 58.0686 28.2676C56.5029 27.8311 54.8426 27.871 53.2996 28.3821C51.9173 28.7546 50.6744 29.5236 49.724 30.5942H55.8454C57.7524 30.5942 58.7821 31.5477 58.7917 33.5405V40.7774C58.8071 41.0872 58.7554 41.3967 58.6402 41.6846C58.525 41.9726 58.349 42.2323 58.1242 42.446C57.3138 43.247 56.5319 44.0956 55.607 45.0681C57.056 45.0956 58.4898 44.7683 59.7833 44.1146C60.7368 43.6284 61.3661 43.7428 61.7475 44.4293C62.1289 45.1158 61.8333 45.7928 60.8703 46.2886C58.8662 47.3327 56.5874 47.7291 54.3484 47.4233C53.972 47.3425 53.579 47.4109 53.2519 47.614C51.8789 48.9584 50.5345 50.3695 49.1519 51.8665V51.857ZM15.9324 17.3693C15.9035 18.4664 15.4415 19.5074 14.6475 20.265C13.8534 21.0226 12.7918 21.4351 11.6946 21.4124C10.5974 21.3898 9.55372 20.9337 8.79165 20.144C8.02958 19.3543 7.61105 18.295 7.6275 17.1977C7.63578 16.6522 7.75179 16.1138 7.96886 15.6134C8.18593 15.113 8.49978 14.6604 8.89236 14.2816C9.28494 13.9029 9.74851 13.6055 10.2564 13.4066C10.7643 13.2076 11.3066 13.111 11.8519 13.1223C12.3973 13.1336 12.9351 13.2526 13.4343 13.4725C13.9335 13.6923 14.3843 14.0087 14.7609 14.4033C15.1374 14.798 15.4322 15.2632 15.6284 15.7722C15.8245 16.2812 15.9181 16.824 15.9038 17.3693H15.9324ZM11.8038 18.9521C12.0274 18.9546 12.2492 18.9125 12.4563 18.8281C12.6633 18.7437 12.8515 18.6188 13.0096 18.4607C13.1677 18.3026 13.2926 18.1145 13.377 17.9074C13.4614 17.7003 13.5035 17.4785 13.501 17.2549C13.5185 17.0207 13.4875 16.7853 13.41 16.5637C13.3324 16.342 13.2099 16.1387 13.0501 15.9665C12.8904 15.7943 12.6968 15.657 12.4815 15.5631C12.2662 15.4691 12.0339 15.4207 11.799 15.4207C11.5641 15.4207 11.3318 15.4691 11.1165 15.5631C10.9012 15.657 10.7077 15.7943 10.5479 15.9665C10.3881 16.1387 10.2656 16.342 10.1881 16.5637C10.1105 16.7853 10.0795 17.0207 10.097 17.2549C10.097 17.4786 10.1412 17.7 10.2271 17.9066C10.313 18.1131 10.4389 18.3006 10.5975 18.4584C10.7561 18.6161 10.9443 18.7409 11.1514 18.8256C11.3584 18.9104 11.5801 18.9533 11.8038 18.9521ZM26.4398 14.0988C26.4398 13.5554 26.5469 13.0173 26.7548 12.5152C26.9628 12.0132 27.2676 11.557 27.6519 11.1727C28.0361 10.7885 28.4923 10.4837 28.9944 10.2757C29.4964 10.0677 30.0345 9.9607 30.578 9.9607C31.1214 9.9607 31.6595 10.0677 32.1616 10.2757C32.6636 10.4837 33.1198 10.7885 33.5041 11.1727C33.8883 11.557 34.1931 12.0132 34.4011 12.5152C34.6091 13.0173 34.7161 13.5554 34.7161 14.0988C34.7161 15.1963 34.2801 16.2489 33.5041 17.0249C32.728 17.801 31.6755 18.237 30.578 18.237C29.4805 18.237 28.4279 17.801 27.6519 17.0249C26.8758 16.2489 26.4398 15.1963 26.4398 14.0988ZM28.8808 14.0988C28.8677 14.3318 28.9027 14.5649 28.9838 14.7837C29.0649 15.0025 29.1902 15.2022 29.3519 15.3704C29.5136 15.5386 29.7082 15.6716 29.9237 15.7612C30.1391 15.8508 30.3707 15.895 30.604 15.891C30.8373 15.8871 31.0672 15.8351 31.2795 15.7383C31.4918 15.6415 31.6818 15.5019 31.8378 15.3284C31.9937 15.1548 32.1122 14.951 32.1858 14.7296C32.2594 14.5082 32.2866 14.274 32.2656 14.0416C32.2271 13.6147 32.0285 13.2181 31.7096 12.9316C31.3907 12.6451 30.9752 12.4899 30.5466 12.4971C30.118 12.5044 29.708 12.6735 29.399 12.9706C29.0899 13.2678 28.9048 13.6708 28.8808 14.0988ZM3.40354 9.78907V12.8021C3.40354 13.8033 2.86005 14.3372 2.18308 14.3372C1.5061 14.3372 0.953076 13.746 0.953076 12.8116V6.78558C0.953076 5.83209 1.42029 5.31721 2.1068 5.29814C2.79331 5.27907 3.34633 5.84163 3.37494 6.78558L3.40354 9.78907ZM18.6212 4.52581V7.44349C18.6212 8.45418 18.1159 9.08349 17.4103 9.10256C16.7047 9.12163 16.2089 8.54 16.2089 7.48163V1.65581C16.2089 0.635579 16.6952 0.0348816 17.4198 0.0348816C18.1445 0.0348816 18.5831 0.645114 18.6117 1.61767L18.6212 4.52581ZM43.4119 7.66279V10.6758C43.4119 11.677 42.897 12.23 42.201 12.23C41.5049 12.23 40.9996 11.6198 40.9996 10.6853C40.9996 8.7148 40.9996 6.7538 40.9996 4.80232C40.9996 3.79163 41.5145 3.20046 42.2677 3.22907C43.021 3.25767 43.4119 3.82023 43.4215 4.81186L43.4119 7.66279ZM21.3673 23.1665V20.7256C21.3673 19.9151 21.8345 19.3812 22.5591 19.3716C22.7332 19.3565 22.9085 19.3801 23.0723 19.4409C23.2362 19.5016 23.3845 19.5979 23.5067 19.7228C23.6289 19.8477 23.7219 19.9982 23.7789 20.1633C23.836 20.3285 23.8558 20.5042 23.8368 20.6779V25.8744C23.8498 26.0376 23.8294 26.2018 23.7766 26.3568C23.7239 26.5118 23.6401 26.6544 23.5302 26.7759C23.4204 26.8973 23.2869 26.995 23.138 27.063C22.989 27.131 22.8277 27.1678 22.664 27.1712C22.4938 27.1716 22.3252 27.1369 22.169 27.0693C22.0127 27.0017 21.872 26.9027 21.7557 26.7783C21.6394 26.654 21.55 26.507 21.493 26.3466C21.436 26.1861 21.4127 26.0157 21.4245 25.8458C21.3482 24.9495 21.3673 24.0533 21.3673 23.1665Z" fill="#212529"/>
</svg>
