<svg width="92" height="89" viewBox="0 0 92 89" fill="none" xmlns="http://www.w3.org/2000/svg">
    <path d="M52.0702 78.32C73.6976 78.32 91.2302 60.7875 91.2302 39.16C91.2302 17.5325 73.6976 0 52.0702 0C30.4427 0 12.9102 17.5325 12.9102 39.16C12.9102 60.7875 30.4427 78.32 52.0702 78.32Z" fill="#E8EDFA"/>
    <path d="M54.4999 88.4808C50.8229 88.4808 47.2285 87.3905 44.1713 85.3476C41.114 83.3048 38.7311 80.4013 37.324 77.0043C35.9169 73.6072 35.5487 69.8692 36.2661 66.2629C36.9834 62.6566 38.754 59.3439 41.354 56.7439C43.954 54.1439 47.2666 52.3733 50.8729 51.656C54.4792 50.9386 58.2173 51.3068 61.6143 52.7139C65.0114 54.121 67.9149 56.5039 69.9577 59.5612C72.0005 62.6184 73.0909 66.2128 73.0909 69.8898C73.0786 74.8167 71.116 79.5382 67.6322 83.0221C64.1483 86.5059 59.4267 88.4685 54.4999 88.4808ZM54.4999 53.8364C51.3303 53.8364 48.232 54.7763 45.5966 56.5372C42.9612 58.2981 40.9072 60.801 39.6943 63.7292C38.4813 66.6575 38.164 69.8797 38.7823 72.9883C39.4007 76.0969 40.927 78.9524 43.1682 81.1936C45.4094 83.4348 48.2648 84.9611 51.3735 85.5794C54.4821 86.1978 57.7043 85.8804 60.6325 84.6675C63.5608 83.4546 66.0637 81.4005 67.8246 78.7652C69.5855 76.1298 70.5253 73.0314 70.5253 69.8619C70.5229 65.6124 68.8337 61.5377 65.8289 58.5329C62.824 55.5281 58.7493 53.8389 54.4999 53.8364ZM63.2098 69.5087C63.1173 69.1888 62.9142 68.9122 62.6366 68.7283C62.3591 68.5444 62.0252 68.4652 61.6946 68.5048H55.8477V68.449V62.6486C55.8759 62.4278 55.8491 62.2035 55.7695 61.9956C55.6899 61.7878 55.5601 61.6029 55.3916 61.4574C55.2231 61.312 55.0213 61.2105 54.804 61.1621C54.5868 61.1136 54.3609 61.1198 54.1466 61.1799C53.8275 61.2725 53.5519 61.476 53.3696 61.7538C53.1872 62.0316 53.1101 62.3654 53.152 62.6951V68.5233H47.3051C47.082 68.4946 46.8553 68.5335 46.6545 68.6349C46.3045 68.8671 46.0223 69.1878 45.8365 69.5644C45.5297 70.494 46.2083 71.2283 47.2958 71.2376H53.152V77.0845C53.1239 77.3077 53.1627 77.5342 53.2636 77.7352C53.4981 78.0831 53.8182 78.3648 54.1931 78.5532C55.1227 78.86 55.857 78.1721 55.8663 77.0845V71.2376H55.9314H61.7318C61.9563 71.2695 62.1853 71.2441 62.3974 71.1639C62.6096 71.0837 62.7981 70.9513 62.9455 70.7789C63.0928 70.6065 63.1943 70.3997 63.2405 70.1777C63.2867 69.9557 63.2761 69.7255 63.2098 69.5087ZM17.5874 13.1221C18.5713 13.3937 19.5293 13.7514 20.4504 14.1911C21.7775 14.9902 22.7987 16.2107 23.3513 17.6579C23.9039 19.1051 23.956 20.6957 23.4993 22.1759C23.1359 23.3757 22.4574 24.4561 21.5343 25.3045C20.6113 26.1528 19.4777 26.7381 18.2515 26.9992C17.0254 27.2604 15.7516 27.1879 14.563 26.7893C13.3744 26.3907 12.3145 25.6806 11.4937 24.733C10.6729 23.7854 10.1213 22.635 9.89639 21.4017C9.67146 20.1684 9.78145 18.8973 10.2149 17.721C10.6483 16.5447 11.3893 15.5061 12.3607 14.7136C13.332 13.921 14.4982 13.4036 15.7376 13.2151C15.8136 13.1881 15.888 13.157 15.9607 13.1221H17.5874ZM21.3056 20.038C21.2834 19.1423 20.9965 18.2733 20.4811 17.5405C19.9657 16.8078 19.2448 16.244 18.4094 15.9204C17.574 15.5967 16.6615 15.5277 15.7869 15.722C14.9124 15.9163 14.1149 16.3653 13.4951 17.0122C12.8754 17.6591 12.4611 18.4751 12.3044 19.3572C12.1478 20.2393 12.2559 21.148 12.615 21.9688C12.9742 22.7895 13.5684 23.4856 14.3226 23.9691C15.0768 24.4526 15.9573 24.702 16.8531 24.6857C17.4516 24.6749 18.0421 24.5459 18.5907 24.3061C19.1392 24.0664 19.635 23.7207 20.0496 23.2889C20.4642 22.857 20.7894 22.3475 21.0065 21.7896C21.2237 21.2317 21.3285 20.6365 21.3149 20.038H21.3056ZM23.7782 58.6887C23.7598 60.0717 23.332 61.4183 22.5489 62.5584C21.7658 63.6985 20.6625 64.581 19.3782 65.0946C18.0939 65.6082 16.6863 65.7297 15.333 65.4439C13.9797 65.1581 12.7414 64.4778 11.7745 63.4888C10.8075 62.4998 10.1552 61.2465 9.9 59.8871C9.64476 58.5277 9.79799 57.1232 10.3404 55.8508C10.8827 54.5784 11.7899 53.4952 12.9473 52.738C14.1048 51.9808 15.4607 51.5835 16.8438 51.5962C17.7657 51.6035 18.6771 51.793 19.5254 52.154C20.3738 52.5149 21.1424 53.0402 21.7869 53.6994C22.4315 54.3586 22.9392 55.1388 23.281 55.9951C23.6227 56.8514 23.7917 57.7668 23.7782 58.6887ZM21.3149 58.5307C21.3298 57.9192 21.2209 57.311 20.9947 56.7427C20.7685 56.1744 20.4297 55.6578 19.9987 55.2238C19.5677 54.7898 19.0534 54.4474 18.4866 54.2173C17.9199 53.9872 17.3125 53.8741 16.7009 53.8847C16.0894 53.8954 15.4863 54.0296 14.9279 54.2793C14.3696 54.5291 13.8675 54.8891 13.4519 55.3379C13.0363 55.7867 12.7157 56.3148 12.5095 56.8907C12.3032 57.4665 12.2156 58.0781 12.2518 58.6887C12.321 59.8569 12.8391 60.9532 13.6977 61.7484C14.5563 62.5436 15.689 62.9762 16.8591 62.9558C18.0292 62.9354 19.1461 62.4635 19.9765 61.6389C20.8069 60.8142 21.2864 59.7006 21.3149 58.5307Z" fill="#212529"/>
    <path d="M23.7778 39.3633C23.7796 40.7461 23.3718 42.0985 22.6059 43.2497C21.8399 44.401 20.7501 45.2996 19.474 45.8321C18.1979 46.3646 16.7926 46.5073 15.4355 46.242C14.0784 45.9767 12.8303 45.3154 11.8486 44.3415C10.867 43.3676 10.1958 42.1248 9.91972 40.7699C9.64366 39.4149 9.77511 38.0086 10.2975 36.7282C10.8199 35.4479 11.7098 34.351 12.8549 33.5759C14 32.8008 15.3491 32.3823 16.7318 32.3731C17.6548 32.3645 18.5704 32.539 19.4255 32.8866C20.2806 33.2341 21.0583 33.7478 21.7135 34.3979C22.3688 35.048 22.8886 35.8216 23.243 36.6739C23.5973 37.5262 23.7791 38.4403 23.7778 39.3633ZM21.3145 39.3633C21.3182 38.4654 21.0553 37.5865 20.5591 36.8381C20.0629 36.0897 19.3557 35.5054 18.5272 35.1592C17.6986 34.813 16.786 34.7205 15.9048 34.8935C15.0236 35.0664 14.2136 35.4969 13.5774 36.1306C12.9411 36.7642 12.5072 37.5725 12.3307 38.4529C12.1541 39.3334 12.2429 40.2464 12.5857 41.0764C12.9284 41.9063 13.5098 42.6159 14.2562 43.1152C15.0026 43.6144 15.8804 43.881 16.7783 43.881C17.9766 43.881 19.1262 43.4069 19.9761 42.5622C20.826 41.7175 21.3072 40.5709 21.3145 39.3726V39.3633ZM36.7637 15.037H46.3938C46.6527 15.0305 46.9098 15.0813 47.1468 15.1857C47.3427 15.3146 47.4976 15.4969 47.5932 15.711C47.6887 15.9252 47.7209 16.1623 47.6859 16.3941C47.6811 16.6276 47.6031 16.8536 47.463 17.0404C47.323 17.2271 47.1278 17.3652 46.9051 17.4352C46.7309 17.4722 46.5533 17.4909 46.3752 17.491H27.1428C26.362 17.491 25.9809 17.1843 25.86 16.4964C25.7833 16.2057 25.8205 15.8966 25.9638 15.6323C26.1072 15.368 26.346 15.1684 26.6316 15.0742C26.8232 15.0557 27.0162 15.0557 27.2079 15.0742L36.7637 15.037ZM36.7544 34.3252H46.3938C46.5626 34.2995 46.735 34.3122 46.8982 34.3625C47.0613 34.4127 47.2111 34.4991 47.3362 34.6153C47.4613 34.7315 47.5585 34.8744 47.6207 35.0334C47.6829 35.1924 47.7083 35.3634 47.6952 35.5336C47.7109 35.708 47.687 35.8838 47.6253 36.0477C47.5635 36.2116 47.4655 36.3594 47.3385 36.4801C47.2116 36.6008 47.059 36.6912 46.8922 36.7446C46.7254 36.798 46.5487 36.813 46.3752 36.7885H27.1521C26.8906 36.7905 26.6314 36.7399 26.3899 36.6398C26.1937 36.5124 26.0374 36.3324 25.9387 36.1203C25.8401 35.9083 25.8032 35.6727 25.8322 35.4406C25.8353 35.2061 25.91 34.978 26.0462 34.787C26.1824 34.596 26.3736 34.4511 26.5944 34.3717C26.7827 34.3482 26.9731 34.3482 27.1614 34.3717L36.7544 34.3252ZM30.2196 57.2014H26.9383C26.7517 57.1975 26.5688 57.1487 26.405 57.0592C26.2413 56.9696 26.1015 56.8419 25.9975 56.6869C25.8936 56.5319 25.8285 56.3541 25.8078 56.1686C25.7871 55.9831 25.8114 55.7953 25.8786 55.6212C25.9214 55.3693 26.0544 55.1417 26.2529 54.9809C26.4514 54.82 26.7017 54.737 26.9569 54.7474H28.2211H35.2485C35.5087 54.739 35.768 54.7833 36.0107 54.8776C36.2095 55.0006 36.3686 55.1781 36.4691 55.3891C36.5697 55.6001 36.6074 55.8356 36.5778 56.0674C36.584 56.3014 36.5165 56.5315 36.3847 56.7251C36.2529 56.9186 36.0635 57.0657 35.8434 57.1457C35.67 57.1872 35.4919 57.2059 35.3136 57.2014H30.2196ZM32.1717 44.3922H26.9476C26.7651 44.3952 26.5846 44.3534 26.4221 44.2704C26.2595 44.1874 26.1198 44.0658 26.0152 43.9162C25.9106 43.7666 25.8442 43.5937 25.8221 43.4125C25.7999 43.2313 25.8225 43.0475 25.8879 42.8771C26.0118 42.5547 26.2167 42.2698 26.4828 42.0497C26.618 41.955 26.7841 41.9151 26.9476 41.9382H37.3586C37.6253 41.9247 37.8872 42.0132 38.091 42.1859C38.2947 42.3586 38.4251 42.6024 38.4555 42.8678C38.5174 43.0398 38.5376 43.2242 38.5143 43.4056C38.4909 43.587 38.4247 43.7602 38.3212 43.911C38.2177 44.0617 38.0797 44.1857 37.9188 44.2726C37.7579 44.3595 37.5786 44.4069 37.3958 44.4108H33.1849L32.1717 44.3922Z" fill="#212529"/>
    <path d="M32.1718 25.2249H26.9477C26.7611 25.2203 26.5782 25.1713 26.4144 25.0817C26.2506 24.9922 26.1106 24.8648 26.006 24.7102C25.9014 24.5556 25.8352 24.3782 25.8131 24.1929C25.791 24.0075 25.8135 23.8195 25.8787 23.6446C25.9213 23.3919 26.054 23.1632 26.2522 23.0009C26.4505 22.8385 26.7009 22.7535 26.957 22.7616H37.3494C37.5319 22.7607 37.712 22.8028 37.8752 22.8845C38.0384 22.9662 38.18 23.0852 38.2886 23.2319C38.3973 23.3785 38.4698 23.5487 38.5004 23.7286C38.531 23.9085 38.5188 24.0931 38.4648 24.2674C38.4344 24.5345 38.3027 24.7797 38.097 24.9526C37.8912 25.1255 37.627 25.213 37.3587 25.197L32.1718 25.2249ZM6.40461 74.2215C5.37567 74.2339 4.38383 73.8377 3.64668 73.1197C2.90954 72.4017 2.4873 71.4207 2.47261 70.3917V9.97093C2.49698 8.94769 2.92317 7.97516 3.65899 7.2637C4.39481 6.55223 5.38112 6.159 6.40461 6.16906H54.1742C55.2032 6.15915 56.194 6.55777 56.9294 7.27748C57.6648 7.99719 58.0847 8.97921 58.0969 10.0081V52.9534C58.9122 52.7494 59.7375 52.588 60.5696 52.47V10.0081C60.5475 8.3316 59.8622 6.7321 58.6636 5.55966C57.465 4.38722 55.8508 3.73734 54.1742 3.75223H6.40461C4.72641 3.73486 3.10981 4.38365 1.90923 5.55635C0.708643 6.72906 0.0220575 8.32997 0 10.0081L0 70.4289C0.0220514 72.1062 0.708938 73.7062 1.90979 74.8774C3.11065 76.0487 4.72728 76.6954 6.40461 76.6755H38.8738C38.9069 75.8659 38.9876 75.0589 39.1155 74.2587L6.40461 74.2215Z" fill="#212529"/>
</svg>
