<svg width="96" height="86" viewBox="0 0 96 86" fill="none" xmlns="http://www.w3.org/2000/svg">
    <path d="M55.9798 83.37C77.6073 83.37 95.1398 65.8375 95.1398 44.21C95.1398 22.5825 77.6073 5.04999 55.9798 5.04999C34.3524 5.04999 16.8198 22.5825 16.8198 44.21C16.8198 65.8375 34.3524 83.37 55.9798 83.37Z" fill="#E8EDFA"/>
    <path d="M23.0898 14.4C24.6031 11.0742 26.785 8.09565 29.4998 5.65001C31.6151 3.71335 34.0959 2.21881 36.7968 1.25415C39.4976 0.289494 42.3639 -0.125848 45.2275 0.0325136C48.091 0.190875 50.8941 0.919749 53.4721 2.17634C56.05 3.43293 58.351 5.19191 60.2398 7.35001C64.4028 11.9055 66.9292 17.7183 67.4198 23.87C67.397 24.1128 67.4637 24.3555 67.6073 24.5526C67.751 24.7497 67.9617 24.8874 68.1998 24.94C71.1764 25.9785 73.7005 28.0175 75.3417 30.7091C76.9829 33.4007 77.6396 36.5783 77.1998 39.7C77.0344 41.7059 76.4442 43.6537 75.4684 45.414C74.4925 47.1743 73.1534 48.7069 71.5398 49.91C69.7633 51.2457 67.6209 52.0063 65.3998 52.09C65.1665 52.1261 64.9279 52.1085 64.7025 52.0383C64.477 51.9682 64.2705 51.8475 64.0988 51.6855C63.9271 51.5234 63.7947 51.3242 63.7116 51.1032C63.6286 50.8821 63.5972 50.6451 63.6198 50.41C63.6246 50.0205 63.7788 49.6478 64.0505 49.3686C64.3221 49.0895 64.6906 48.9254 65.0798 48.91C70.1598 48.18 73.3598 44.99 74.0098 39.91C74.271 38.354 74.2115 36.761 73.8349 35.2289C73.4583 33.6967 72.7726 32.2576 71.8198 31C70.6543 29.5992 69.0963 28.5792 67.3462 28.0713C65.5962 27.5634 63.7341 27.5908 61.9998 28.15C61.6496 28.2666 61.2922 28.3602 60.9298 28.43C60.5351 28.5229 60.1199 28.4605 59.77 28.2557C59.42 28.051 59.1622 27.7196 59.0498 27.33C58.9834 27.1372 58.9567 26.9329 58.9714 26.7294C58.9861 26.526 59.0418 26.3276 59.1353 26.1463C59.2287 25.965 59.3579 25.8046 59.5151 25.6746C59.6723 25.5446 59.8542 25.4478 60.0498 25.39C61.3998 24.95 62.7998 24.63 64.2698 24.23C64.1713 21.744 63.6294 19.2955 62.6698 17C60.2398 11.06 56.4498 6.43001 50.2698 4.20001C42.5998 1.43001 34.2398 4.13001 28.9998 11C28.4355 11.7448 27.9114 12.5192 27.4298 13.32C26.9498 14.12 26.5498 14.97 26.2898 15.45C27.0398 16.39 27.7198 17.17 28.2898 18.01C28.8149 18.6906 29.2548 19.4327 29.5998 20.22C29.7237 20.5542 29.7174 20.9227 29.5822 21.2525C29.4469 21.5822 29.1927 21.8491 28.8698 22C28.5756 22.1827 28.2259 22.2549 27.8834 22.2036C27.5408 22.1523 27.2276 21.9809 26.9998 21.72C26.8542 21.5796 26.7266 21.4218 26.6198 21.25C22.4998 15.37 14.2998 15 9.0498 19.54C4.4298 23.54 2.7698 28.83 3.3798 34.79C3.54492 37.1364 4.23218 39.4163 5.39137 41.463C6.55056 43.5098 8.15239 45.2717 10.0798 46.62C12.0636 48.0104 14.4002 48.8112 16.8198 48.93H17.4198C17.6379 48.9403 17.8518 48.9934 18.0493 49.0865C18.2468 49.1795 18.424 49.3106 18.5708 49.4722C18.7175 49.6339 18.831 49.8229 18.9046 50.0284C18.9782 50.2339 19.0106 50.452 18.9998 50.67C18.9863 50.8881 18.9285 51.1011 18.8301 51.2961C18.7316 51.4912 18.5944 51.6641 18.427 51.8045C18.2595 51.9448 18.0652 52.0496 17.856 52.1124C17.6467 52.1753 17.4269 52.1949 17.2098 52.17C14.6218 52.1958 12.0717 51.5479 9.8098 50.29C7.42938 48.978 5.36899 47.1552 3.7766 44.9525C2.1842 42.7498 1.0993 40.2218 0.599802 37.55C-1.0002 30.1 0.529802 23.32 6.0798 17.89C10.7598 13.32 16.3498 12 22.6198 14.27L23.0898 14.4ZM57.8498 37.32C59.9198 37.84 60.5898 38.88 60.3198 40.86C59.4931 46.86 58.6765 52.86 57.8698 58.86C57.6098 60.81 56.7498 61.64 54.7698 61.65H26.0898C23.9198 61.65 23.0898 60.89 22.7898 58.73L20.9498 43.2C20.8599 42.651 20.9355 42.0877 21.167 41.5819C21.3986 41.0761 21.7755 40.6507 22.2498 40.36C22.4044 40.2392 22.5328 40.0883 22.6273 39.9164C22.7219 39.7445 22.7805 39.5552 22.7998 39.36V34.55C22.7998 32.47 23.7998 31.47 25.8798 31.47H54.8098C55.2142 31.4276 55.6229 31.476 56.0062 31.6118C56.3895 31.7475 56.7376 31.9672 57.0251 32.2547C57.3126 32.5422 57.5323 32.8903 57.668 33.2736C57.8038 33.6569 57.8522 34.0656 57.8098 34.47L57.8498 37.32ZM57.0498 40.58H55.8698H44.8698C43.8698 40.58 43.2998 40.77 42.9698 41.72C42.8015 42.2308 42.4587 42.6661 42.0016 42.9495C41.5445 43.2329 41.0022 43.3464 40.4698 43.27H25.4698H24.1298L25.9998 58.32C26.1575 58.3614 26.3179 58.3914 26.4798 58.41H54.0598C54.7098 58.41 54.7998 58.09 54.8698 57.56L56.2098 47.32L57.0498 40.58ZM26.0998 40H27.2398H38.8798C39.8798 40 40.4598 39.8 40.7898 38.86C40.9527 38.3477 41.2929 37.9103 41.7492 37.6262C42.2056 37.3421 42.7482 37.23 43.2798 37.31H53.5198H54.5798V34.73H26.0998V40ZM38.7098 79.32V74V67C38.7098 65.8 39.3298 65.12 40.3298 65.13C41.3298 65.14 41.8998 65.8 41.9098 67.03V78.27V79.53L42.5998 79L46.7898 74.81C46.9273 74.6204 47.1032 74.4618 47.306 74.3446C47.5088 74.2274 47.7339 74.1542 47.9669 74.1296C48.1998 74.1051 48.4353 74.1299 48.6581 74.2023C48.8808 74.2747 49.0858 74.3932 49.2598 74.55C49.9798 75.23 49.9098 76.23 49.0398 77.1C46.6131 79.54 44.1765 81.9767 41.7298 84.41C40.7298 85.41 39.9298 85.41 38.8998 84.41L31.6598 77.18C30.7198 76.18 30.6598 75.39 31.3198 74.64C31.9798 73.89 32.9998 74 33.9998 74.9L38.4998 79.45L38.7098 79.32Z" fill="#212529"/>
</svg>