<svg width="108" height="92" viewBox="0 0 108 92" fill="none" xmlns="http://www.w3.org/2000/svg">
    <path d="M38.56 84.68C59.8561 84.68 77.12 67.4161 77.12 46.12C77.12 24.8239 59.8561 7.56 38.56 7.56C17.2639 7.56 0 24.8239 0 46.12C0 67.4161 17.2639 84.68 38.56 84.68Z" fill="#E8EDFA"/>
    <path d="M16.27 4.99C16.34 4.83 16.42 4.68 16.47 4.52C17.29 1.74 19.57 0.01 22.48 0C30.71 0 38.94 0 47.17 0C57.48 0 67.79 0 78.09 0C82.19 0 84.71 2.51 84.71 6.59C84.71 18.23 84.71 29.88 84.71 41.52V42.63C86.63 42.63 87.58 43.76 88.01 45.39C88.4 46.85 89.33 47.53 90.7 48.18C92.47 49.02 93.93 49 95.56 48.06C96.87 47.31 98.14 47.57 99.22 48.64C100.04 49.45 100.87 50.26 101.66 51.11C102.5 52.03 102.79 53.17 102.16 54.24C101.04 56.15 101.07 57.88 102.11 59.85C102.64 60.86 103.09 61.65 104.24 61.91C104.64 62 105.01 62.23 105.4 62.37C106.68 62.84 107.4 63.76 107.44 65.11C107.48 66.44 107.47 67.78 107.38 69.11C107.31 70.17 106.68 70.92 105.71 71.35C104.71 71.79 103.47 71.98 102.75 72.7C102.06 73.39 101.98 74.66 101.48 75.59C101.04 76.4 100.94 77.11 101.45 77.89C101.55 78.04 101.59 78.22 101.66 78.38C102.87 81.19 102.8 81.63 100.69 83.8C100.11 84.4 99.51 84.97 98.87 85.51C98 86.24 97.01 86.39 95.95 85.97C94.96 85.57 93.98 84.84 92.99 84.83C92.04 84.83 91.12 85.68 90.13 85.94C89.07 86.21 88.52 86.81 88.26 87.8C88.19 88.06 88.04 88.29 87.97 88.54C87.57 89.97 86.7 90.91 85.23 91.26H81.13C79.54 90.94 78.69 89.86 78.32 88.38C77.96 86.96 77.21 86.02 75.72 85.77C75.52 85.74 75.3 85.66 75.15 85.54C73.89 84.58 72.66 84.81 71.39 85.54C69.54 86.62 67.94 86.25 66.54 84.68C65.95 84.02 65.29 83.41 64.7 82.74C63.87 81.82 63.55 80.69 64.18 79.62C65.3 77.72 65.29 75.98 64.24 74.01C63.71 73.01 63.29 72.19 62.13 71.93C61.64 71.82 61.19 71.58 60.72 71.38C59.72 70.95 59.02 70.21 58.96 69.11C58.88 67.66 58.87 66.2 58.96 64.76C59.02 63.62 59.74 62.87 60.78 62.43C61.33 62.2 61.87 61.92 62.44 61.8C63.76 61.51 64.04 60.5 64.28 59.33H63.17C50.01 59.33 36.85 59.33 23.69 59.33C19.32 59.33 17.75 58.24 16.25 54.18V4.99H16.27ZM81.62 42.64V15.25H19.3V16.25C19.3 28.4 19.3 40.55 19.3 52.7C19.3 55.13 20.47 56.3 22.9 56.31C36.59 56.31 50.29 56.31 63.98 56.31C64.29 56.31 64.59 56.28 65.01 56.26C64.71 55.54 64.47 54.94 64.21 54.35C63.69 53.13 63.86 52.02 64.77 51.06C65.54 50.24 66.35 49.45 67.15 48.66C68.23 47.59 69.49 47.34 70.81 48.08C72.44 49 73.89 49.07 75.68 48.21C77.08 47.54 78.02 46.83 78.41 45.34C78.83 43.72 79.82 42.67 81.63 42.65L81.62 42.64ZM99.36 53.19C99.26 53.05 99.17 52.86 99.03 52.72C98.58 52.25 98.1 51.8 97.67 51.32C97.26 50.87 96.86 50.74 96.28 51.05C95.55 51.44 94.75 51.69 94.01 52.06C93.19 52.47 92.47 52.4 91.66 51.96C90.68 51.42 89.65 50.86 88.58 50.62C87.03 50.27 86.25 49.4 85.75 47.95C84.88 45.46 84.8 45.47 82.15 45.71C81.86 45.74 81.47 46.03 81.34 46.3C80.92 47.18 80.58 48.1 80.23 49.01C79.98 49.67 79.53 50.05 78.87 50.3C77.38 50.86 75.93 51.55 74.43 52.09C73.92 52.27 73.27 52.32 72.75 52.18C71.85 51.92 70.96 51.52 70.14 51.07C69.07 50.48 68.69 51.41 68.2 51.91C67.68 52.43 66.7 52.81 67.33 53.92C67.76 54.69 68.02 55.56 68.4 56.36C68.72 57.04 68.64 57.63 68.33 58.31C67.69 59.7 67.09 61.13 66.56 62.57C66.3 63.27 65.92 63.74 65.23 64C64.31 64.34 63.41 64.71 62.51 65.09C62.31 65.17 62 65.35 61.99 65.49C61.94 66.47 61.94 67.45 61.99 68.42C61.99 68.57 62.3 68.74 62.5 68.82C63.4 69.2 64.31 69.57 65.22 69.91C65.92 70.17 66.3 70.64 66.55 71.34C67.08 72.78 67.67 74.2 68.32 75.6C68.63 76.27 68.74 76.87 68.39 77.54C68.2 77.91 68.07 78.3 67.9 78.69C66.95 80.91 66.96 80.9 68.74 82.58C69.18 82.99 69.53 83.16 70.13 82.85C70.94 82.42 71.82 82.12 72.65 81.74C73.3 81.44 73.88 81.5 74.51 81.82C75.59 82.37 76.67 83 77.83 83.28C79.37 83.65 80.16 84.5 80.66 85.96C81.54 88.48 81.62 88.47 84.26 88.21C84.55 88.18 84.94 87.88 85.07 87.61C85.49 86.73 85.83 85.81 86.18 84.89C86.43 84.23 86.88 83.86 87.55 83.62C88.99 83.09 90.42 82.5 91.81 81.86C92.51 81.53 93.13 81.44 93.84 81.78C94.72 82.2 95.62 82.6 96.55 82.91C96.82 83 97.32 82.89 97.51 82.68C98.15 82 98.71 81.24 99.26 80.48C99.31 80.41 99.14 80.17 99.07 80C98.72 79.18 98.4 78.35 98.01 77.55C97.68 76.87 97.77 76.28 98.09 75.6C98.74 74.21 99.33 72.78 99.86 71.34C100.12 70.64 100.5 70.17 101.19 69.91C102.08 69.58 102.97 69.25 103.83 68.84C104.11 68.71 104.46 68.32 104.46 68.06C104.44 67.09 104.3 66.13 104.16 65.16C104.15 65.07 103.85 65.02 103.69 64.95C102.92 64.64 102.16 64.3 101.37 64.04C100.53 63.76 100.09 63.23 99.82 62.38C99.41 61.12 98.93 59.86 98.3 58.69C97.79 57.73 97.66 56.9 98.19 55.93C98.57 55.23 98.84 54.47 99.15 53.73C99.22 53.57 99.28 53.4 99.37 53.18L99.36 53.19ZM19.31 12.09H81.68C81.68 10.27 81.68 8.52 81.68 6.78C81.68 4.15 80.58 3.05 77.95 3.05C59.65 3.05 41.36 3.05 23.06 3.05C22.79 3.05 22.52 3.05 22.26 3.05C20.64 3.14 19.37 4.35 19.33 5.96C19.28 7.98 19.32 9.99 19.32 12.09H19.31Z" fill="#212529"/>
    <path d="M28.4402 44.09C27.2902 44.09 26.6302 43.05 27.1002 41.87C27.8602 39.97 28.6602 38.09 29.4502 36.2C31.1102 32.2 32.7902 28.21 34.4402 24.21C34.7502 23.45 35.1502 22.81 36.0802 22.83C36.9702 22.85 37.3402 23.47 37.6402 24.2C40.0502 30.01 42.4702 35.81 44.8902 41.61C45.2002 42.35 45.3202 43.04 44.7002 43.67C43.9402 44.43 42.7002 44.16 42.2202 43.1C41.5702 41.64 40.9602 40.16 40.3702 38.67C40.1802 38.18 39.9202 38.01 39.3902 38.01C37.1602 38.04 34.9302 38.04 32.7102 38.01C32.1302 38.01 31.8902 38.23 31.6902 38.74C31.1302 40.18 30.5102 41.59 29.9202 43.02C29.6502 43.68 29.2002 44.1 28.4402 44.11V44.09ZM33.3002 34.89H38.7902L36.0402 28.31L33.3002 34.89Z" fill="#212529"/>
    <path d="M52.7899 34.96C52.7899 37.42 52.7899 39.74 52.7899 42.05C52.7899 42.4 52.7699 42.77 52.6599 43.1C52.3999 43.85 51.8199 44.16 51.0499 44.06C50.3099 43.97 49.8899 43.51 49.7799 42.78C49.7499 42.55 49.7599 42.31 49.7599 42.07C49.7599 36.34 49.7599 30.6 49.7599 24.87C49.7599 23.27 50.2199 22.8 51.8299 22.82C53.0699 22.84 54.3399 22.77 55.5499 22.99C58.6299 23.56 60.5999 26.33 60.3299 29.52C60.0799 32.51 57.5599 34.85 54.4999 34.96C53.9699 34.98 53.4399 34.96 52.7999 34.96H52.7899ZM52.8499 25.9V31.89C54.4199 32.02 55.8999 32.04 56.8399 30.55C57.4999 29.51 57.5199 28.41 56.8999 27.36C55.9799 25.81 54.4899 25.76 52.8499 25.9Z" fill="#212529"/>
    <path d="M69.5902 41.07C70.0802 41.07 70.5502 41.04 71.0102 41.07C71.9402 41.15 72.5502 41.78 72.5402 42.61C72.5302 43.44 71.9102 44.07 70.9702 44.09C68.9802 44.12 66.9902 44.12 65.0102 44.09C64.0502 44.07 63.4602 43.47 63.4502 42.62C63.4402 41.76 64.0102 41.15 64.9502 41.08C65.4202 41.04 65.8902 41.08 66.4202 41.08V25.86C65.9302 25.86 65.4702 25.88 65.0102 25.86C64.0702 25.82 63.4702 25.24 63.4502 24.38C63.4302 23.52 64.0302 22.86 64.9502 22.84C66.9702 22.81 68.9902 22.81 71.0002 22.84C71.9002 22.85 72.5502 23.53 72.5502 24.35C72.5502 25.17 71.9002 25.81 70.9902 25.86C70.5502 25.88 70.1102 25.86 69.5902 25.86V41.08V41.07Z" fill="#212529"/>
    <path d="M69.5298 66.85C69.5298 59.29 75.6898 53.22 83.3198 53.26C90.7998 53.29 96.8898 59.43 96.8698 66.92C96.8498 74.54 90.7598 80.62 83.1598 80.6C75.5598 80.58 69.5198 74.49 69.5298 66.86V66.85ZM72.5698 66.95C72.5698 72.85 77.3198 77.57 83.2398 77.56C89.0698 77.56 93.8298 72.78 93.8298 66.95C93.8298 61.03 89.0798 56.28 83.1998 56.3C77.2698 56.32 72.5598 61.04 72.5698 66.95Z" fill="#212529"/>
    <path d="M72.5098 9.11001C71.0598 9.11001 69.5998 9.12001 68.1498 9.11001C67.1198 9.10001 66.5098 8.55001 66.4898 7.66001C66.4598 6.73001 67.0898 6.09001 68.1398 6.09001C71.0698 6.07001 74.0098 6.07001 76.9398 6.09001C77.9598 6.09001 78.6498 6.77001 78.6298 7.65001C78.6098 8.51001 77.9498 9.11001 76.9598 9.12001C75.4798 9.14001 73.9998 9.12001 72.5098 9.12001V9.11001Z" fill="#212529"/>
    <path d="M24.6302 9.10999C24.3902 9.10999 24.1602 9.10999 23.9202 9.10999C23.0002 9.05999 22.3602 8.45 22.3502 7.62C22.3402 6.8 22.9802 6.14 23.8802 6.08C24.3502 6.05 24.8302 6.05 25.3002 6.08C26.2602 6.13 26.9302 6.78 26.9102 7.63C26.8902 8.49 26.2302 9.07999 25.2502 9.10999C25.0402 9.10999 24.8302 9.10999 24.6302 9.10999Z" fill="#212529"/>
    <path d="M39.8402 9.11C39.5702 9.11 39.3102 9.13 39.0402 9.11C38.1702 9.05 37.5902 8.45 37.5802 7.63C37.5702 6.82 38.1402 6.18 39.0002 6.1C39.5002 6.05 40.0102 6.06 40.5102 6.09C41.4802 6.13 42.1202 6.77 42.1102 7.64C42.1002 8.52 41.4602 9.09 40.4602 9.12C40.2502 9.12 40.0502 9.12 39.8402 9.12V9.11Z" fill="#212529"/>
    <path d="M32.2498 9.11C31.9798 9.11 31.7198 9.12 31.4498 9.11C30.5698 9.05 29.9898 8.48 29.9698 7.65C29.9498 6.84 30.5098 6.18 31.3698 6.1C31.9298 6.05 32.4998 6.05 33.0598 6.1C33.9698 6.17 34.5298 6.84 34.4898 7.7C34.4498 8.53 33.8698 9.06 32.9698 9.11C32.7298 9.12 32.4998 9.11 32.2598 9.11H32.2498Z" fill="#212529"/>
    <path d="M89.2801 66.93C89.2901 70.23 86.5501 72.99 83.2301 73.01C79.8701 73.03 77.0901 70.26 77.1001 66.92C77.1001 63.6 79.8401 60.85 83.1501 60.83C86.5001 60.81 89.2701 63.56 89.2801 66.93ZM86.2201 66.97C86.2401 65.28 84.8701 63.89 83.1801 63.89C81.5301 63.89 80.1701 65.23 80.1501 66.89C80.1201 68.56 81.5001 69.96 83.1901 69.97C84.8301 69.97 86.2001 68.62 86.2201 66.97Z" fill="#212529"/>
</svg>
