<svg width="91" height="80" viewBox="0 0 91 80" fill="none" xmlns="http://www.w3.org/2000/svg">
<path d="M51.16 78.32C72.7875 78.32 90.32 60.7875 90.32 39.16C90.32 17.5325 72.7875 0 51.16 0C29.5325 0 12 17.5325 12 39.16C12 60.7875 29.5325 78.32 51.16 78.32Z" fill="#E8EDFA"/>
<path d="M15.9177 12.3851L15.4795 12.7702L15.4397 25.7566C15.4131 38.0526 15.3998 38.7165 15.1741 38.5173C14.7226 38.119 13.2885 37.4816 12.3989 37.2957C11.2569 37.0567 10.6727 37.0567 9.50414 37.2957C6.9281 37.8401 4.84336 39.7921 4.0732 42.3947C3.75452 43.4702 3.75452 53.4292 4.0732 54.5047C4.77697 56.8816 6.56958 58.7406 8.7871 59.4178L9.70332 59.6966V65.5923V71.488H5.38778C0.687166 71.488 0.487988 71.5146 0.169302 72.2183C-0.0564339 72.6964 -0.0564339 78.778 0.169302 79.256C0.527823 80.0394 -1.84904 79.9863 34.0031 79.9863C69.8553 79.9863 67.4784 80.0394 67.8369 79.256C67.9432 79.017 67.9963 77.9148 67.9963 75.7239C67.9963 72.3777 67.9299 71.9395 67.3722 71.6739C67.2394 71.6075 65.1945 71.5279 62.8176 71.488L58.5021 71.4216V65.5392V59.6568L59.3652 59.3647C61.5694 58.6211 63.2293 56.8417 63.933 54.5047C64.2517 53.4292 64.2517 43.4702 63.933 42.3947C63.362 40.4825 61.9678 38.7696 60.2947 37.9198C59.3917 37.4683 57.9311 37.0965 57.0414 37.0965C55.7933 37.0965 53.589 37.8401 52.8321 38.5173C52.633 38.6899 52.6197 38.597 52.5666 37.3621C52.5267 36.0342 52.5267 36.0077 52.0885 35.6226C51.5839 35.1711 51.1059 35.1313 50.5084 35.5031C50.2694 35.6491 50.0569 35.7819 50.0436 35.7952C50.0171 35.8218 49.9772 43.842 49.9374 53.6283L49.871 71.4216L45.9937 71.4615L42.1163 71.488L42.0765 65.6986L42.0366 59.9091L41.5985 59.524L41.1735 59.1389H34.0031H26.8327L26.4078 59.524L25.9696 59.9091L25.9297 65.6986L25.8899 71.488L22.0126 71.4615L18.1352 71.4216L18.0954 43.032L18.0688 14.6557H34.0031H49.9374V19.8211L50.0202 37.3621L50.3521 37.7604C50.7505 38.2385 51.2683 38.358 51.8393 38.119C52.6892 37.7604 52.6892 37.7737 52.5666 18.7588L52.5267 12.7702L52.0885 12.3851L51.6636 12H34.0031H16.3426L15.9177 12.3851ZM12.0271 39.9514C12.9035 40.1771 14.0056 40.8676 14.4438 41.4519C14.5898 41.6511 14.8554 42.0892 15.028 42.4079L15.3467 43.0055V48.4497V53.8939L14.9749 54.5977C14.5367 55.4342 13.7533 56.2442 13.0362 56.616C12.7441 56.7621 12.4653 56.8816 12.4254 56.8816C12.3856 56.8816 12.359 54.5711 12.359 51.7295C12.359 47.0554 12.3325 46.5641 12.12 46.3118C11.5756 45.6213 10.6727 45.5815 10.0884 46.2056L9.76971 46.5508L9.72988 51.7162C9.70332 55.7662 9.66348 56.8816 9.5307 56.8816C9.14562 56.8816 7.88415 55.9654 7.4194 55.3545C6.51646 54.1595 6.50318 54.0931 6.54302 48.2372L6.58285 43.0055L6.90154 42.3415C7.4858 41.1597 8.69415 40.1904 9.92905 39.8983C10.6859 39.7124 11.164 39.7257 12.0271 39.9514ZM58.9137 40.2037C59.7768 40.6021 60.6665 41.4784 61.1047 42.3415L61.4234 43.0055L61.4632 48.2372C61.503 54.1329 61.4898 54.2259 60.547 55.4209C60.1088 55.9786 58.8739 56.8816 58.5419 56.8816C58.4755 56.8816 58.4357 54.5446 58.4357 51.7029V46.511L58.117 46.1923C57.639 45.7143 57.1477 45.6346 56.59 45.94C55.8198 46.3517 55.7933 46.5508 55.7933 51.9951C55.78 55.2882 55.7401 56.8816 55.6472 56.8816C55.3418 56.8816 54.4123 56.3106 53.921 55.8193C53.6288 55.5272 53.2305 54.9827 53.0313 54.5977L52.6595 53.8939V48.4497V43.0055L52.9782 42.4079C53.4695 41.4784 53.7882 41.1066 54.5052 40.6153C55.8331 39.7124 57.4929 39.553 58.9137 40.2037ZM15.4131 64.8487V71.488H13.8861H12.359L12.3856 65.5791L12.4254 59.6568L13.3151 59.3514C13.7931 59.1788 14.457 58.8601 14.7757 58.6344C15.0811 58.4086 15.36 58.2227 15.3865 58.2227C15.3998 58.2094 15.4131 61.1971 15.4131 64.8487ZM54.8638 59.4045L55.78 59.7099V65.5923V71.488H54.1865H52.5931V64.862V58.2227L53.2703 58.6742C53.6421 58.9132 54.3592 59.2452 54.8638 59.4045ZM39.4208 66.6015L39.3809 71.4216H34.0031H28.6253L28.5855 66.6015L28.5589 61.7947H34.0031H39.4473L39.4208 66.6015ZM65.3405 75.7372V77.3306H34.0031H2.66567V75.7372V74.1437H34.0031H65.3405V75.7372Z" fill="#212529"/>
<path d="M22.5568 19.9539L22.1187 20.339V24.4155V28.492L22.5568 28.8771L22.9818 29.2622H27.1778C31.6261 29.2622 31.9448 29.2224 32.2768 28.6116C32.3564 28.4522 32.4095 26.8455 32.4095 24.3624V20.3788L32.0909 20.007L31.7722 19.6352L27.377 19.5954L22.995 19.5556L22.5568 19.9539ZM29.7538 24.4155V26.6065H27.2309H24.708V24.4155V22.2246H27.2309H29.7538V24.4155Z" fill="#212529"/>
<path d="M36.3132 19.7016C35.6227 19.9805 35.5962 20.1265 35.5962 24.389C35.5962 26.8455 35.6493 28.4522 35.729 28.6116C36.0609 29.2224 36.3796 29.2622 40.8279 29.2622H45.024L45.4489 28.8771L45.8871 28.492V24.4155V20.339L45.4489 19.9539L45.024 19.5688L40.8014 19.5821C38.4909 19.5821 36.4593 19.6352 36.3132 19.7016ZM43.2978 24.4155V26.6065H40.7748H38.2519V24.4155V22.2246H40.7748H43.2978V24.4155Z" fill="#212529"/>
<path d="M22.5568 33.4981L22.1187 33.8832V37.9597V42.0362L22.5568 42.4213L22.9818 42.8064H27.1778C31.6261 42.8064 31.9448 42.7666 32.2768 42.1557C32.3564 41.9964 32.4095 40.3897 32.4095 37.9066V33.923L32.0909 33.5512L31.7722 33.1794L27.377 33.1396L22.995 33.0998L22.5568 33.4981ZM29.7538 37.9597V40.1507H27.2309H24.708V37.9597V35.7688H27.2309H29.7538V37.9597Z" fill="#212529"/>
<path d="M36.3132 33.2458C35.6227 33.5247 35.5962 33.6707 35.5962 37.9332C35.5962 40.3897 35.6493 41.9964 35.729 42.1557C36.0609 42.7666 36.3796 42.8064 40.8279 42.8064H45.024L45.4489 42.4213L45.8871 42.0362V37.9597V33.8832L45.4489 33.4981L45.024 33.113L40.8014 33.1263C38.4909 33.1263 36.4593 33.1794 36.3132 33.2458ZM43.2978 37.9597V40.1507H40.7748H38.2519V37.9597V35.7688H40.7748H43.2978V37.9597Z" fill="#212529"/>
<path d="M22.9157 46.1127C22.7696 46.1791 22.5306 46.365 22.3845 46.5243C22.1322 46.8032 22.1189 47.0289 22.0791 50.6539C22.0393 54.85 22.0924 55.2085 22.7962 55.5405C23.0219 55.6334 24.4825 55.6865 27.3773 55.6865H31.6397L32.0248 55.3014L32.4098 54.9164V50.8797C32.4098 46.5243 32.4098 46.5243 31.653 46.1392C31.3077 45.9666 23.3406 45.9401 22.9157 46.1127ZM29.7541 50.8398V53.0308H27.2312H24.7083V50.8398V48.6489H27.2312H29.7541V50.8398Z" fill="#212529"/>
<path d="M36.3265 46.1392C35.5962 46.5509 35.5962 46.5376 35.5962 50.8797V54.9164L35.9813 55.3014L36.3663 55.6865H40.6288C43.5235 55.6865 44.9841 55.6334 45.2099 55.5405C45.9136 55.2085 45.9668 54.85 45.9269 50.6407L45.8871 46.7899L45.5153 46.4314L45.1568 46.0596L40.8678 46.033C37.8934 46.0064 36.5124 46.0463 36.3265 46.1392ZM43.2978 50.8398V53.0308H40.7748H38.2519V50.8398V48.6489H40.7748H43.2978V50.8398Z" fill="#212529"/>
</svg>
